<svg width="29" height="16" viewBox="0 0 29 16" fill="none" xmlns="http://www.w3.org/2000/svg">
<rect width="29" height="16" rx="8" fill="url(#paint0_linear_4583_3518)"/>
<path d="M17.4062 11.3818C17.4223 11.39 17.4466 11.3983 17.4708 11.3983H18.409C18.4332 11.3983 18.4494 11.39 18.4737 11.3818C18.4898 11.3736 18.5141 11.3572 18.5303 11.349C18.5464 11.3326 18.5545 11.3162 18.5626 11.2916C18.5707 11.267 18.5788 11.2505 18.5788 11.2259V4.74294C18.5788 4.69371 18.5626 4.65267 18.5303 4.61985C18.4979 4.58702 18.4575 4.57061 18.409 4.57061H17.4708C17.4304 4.57061 17.3819 4.58702 17.3495 4.61985C17.3172 4.65267 17.301 4.69371 17.301 4.74294V11.2177C17.301 11.2423 17.3091 11.2587 17.3172 11.2834C17.3253 11.308 17.3415 11.3244 17.3495 11.3408C17.3657 11.3572 17.3819 11.3736 17.4062 11.3818Z" fill="#5C260B"/>
<path d="M10.7666 4.57877C10.6533 4.57877 10.5725 4.69366 10.6129 4.80034L12.9097 11.2423C12.942 11.3408 13.0391 11.4064 13.1442 11.4064H13.9853C14.0904 11.4064 14.1794 11.3408 14.2198 11.2423L16.5166 4.80034C16.557 4.69366 16.4761 4.57877 16.3629 4.57877H15.4248C15.3197 4.57877 15.2307 4.64442 15.1903 4.7429L13.5647 9.2974L11.9392 4.7429C11.9069 4.64442 11.8098 4.57877 11.7047 4.57877H10.7666Z" fill="#5C260B"/>
<path d="M19.7191 4.57061C19.6139 4.57061 19.5331 4.65267 19.5331 4.75936V11.2013C19.5331 11.308 19.6139 11.39 19.7191 11.39H20.6167C20.7219 11.39 20.8027 11.308 20.8027 11.2013V5.859H22.6466C23.2451 5.859 23.7303 6.35138 23.7303 6.95865C23.7303 7.56591 23.2451 8.05829 22.6466 8.05829H21.4093C21.3042 8.05829 21.2233 8.14035 21.2233 8.24703V9.15793C21.2233 9.26462 21.3042 9.34668 21.4093 9.34668H22.6466C23.9487 9.34668 25 8.27986 25 6.95865C25 5.63743 23.9487 4.57061 22.6466 4.57061H19.7191Z" fill="#5C260B"/>
<path d="M7.65865 11.5C8.21699 11.5 8.69557 11.414 9.09439 11.2421C9.49627 11.0671 9.80305 10.8217 10.0147 10.506C10.2295 10.1872 10.3369 9.81056 10.3369 9.37609V9.3714C10.3369 8.84003 10.1743 8.42275 9.84907 8.11956C9.52695 7.81324 9.01769 7.58975 8.3213 7.4491L7.61724 7.30375C7.23683 7.22561 6.95766 7.1209 6.77972 6.98962C6.60179 6.85834 6.51282 6.68643 6.51282 6.47388V6.46919C6.51282 6.30665 6.55731 6.16443 6.64627 6.04253C6.73831 5.92063 6.87022 5.8253 7.04202 5.75653C7.21382 5.68464 7.41783 5.64869 7.65405 5.64869C7.88414 5.64869 8.08661 5.68308 8.26148 5.75184C8.43941 5.82061 8.58206 5.91907 8.68944 6.04722C8.77108 6.14229 8.82667 6.25327 8.85936 6.37195C8.88778 6.4751 8.97312 6.55827 9.07867 6.55827H9.9896C10.1058 6.55827 10.1992 6.4592 10.1847 6.34219C10.1442 6.01664 10.0465 5.70749 9.85367 5.43302C9.64506 5.13608 9.35362 4.90634 8.97935 4.7438C8.60814 4.58127 8.16637 4.5 7.65405 4.5C7.1632 4.5 6.72757 4.58596 6.34716 4.75787C5.96675 4.92666 5.66764 5.16577 5.44982 5.47522C5.23201 5.78154 5.1231 6.14099 5.1231 6.55358V6.55827C5.1231 7.06776 5.28876 7.48192 5.62009 7.80074C5.95141 8.11956 6.4438 8.34617 7.09724 8.48058L7.7967 8.62123C8.21086 8.70875 8.50537 8.81815 8.68023 8.94943C8.85817 9.07758 8.94713 9.25575 8.94713 9.48393V9.48861C8.94713 9.66053 8.89498 9.81212 8.79068 9.9434C8.68944 10.0716 8.54525 10.1716 8.35811 10.2435C8.17404 10.3122 7.95316 10.3466 7.69547 10.3466C7.4439 10.3466 7.21842 10.3122 7.01901 10.2435C6.8196 10.1716 6.65701 10.0731 6.53123 9.94809C6.43583 9.84847 6.37345 9.73404 6.33287 9.60845C6.3023 9.51385 6.2206 9.44173 6.12249 9.44173H5.19636C5.07935 9.44173 4.98568 9.5421 5.00181 9.65971C5.04765 9.99382 5.15545 10.3113 5.36239 10.5857C5.58634 10.8795 5.89312 11.1062 6.28274 11.2656C6.67542 11.4219 7.13405 11.5 7.65865 11.5Z" fill="#5C260B"/>
<defs>
<linearGradient id="paint0_linear_4583_3518" x1="29" y1="12.6883" x2="-1.62147" y2="6.66602" gradientUnits="userSpaceOnUse">
<stop stop-color="#FFC39E"/>
<stop offset="0.610836" stop-color="#FFBD97"/>
<stop offset="0.61107" stop-color="#FFC9AA"/>
<stop offset="1" stop-color="#FFD6BF"/>
</linearGradient>
</defs>
</svg>
